<svg xmlns="http://www.w3.org/2000/svg" width="56.232" height="56.232" viewBox="0 0 56.232 56.232"><defs><style>.a,.c{fill:#3da836;}.b{fill:#fff;}.c{opacity:0.1;}</style></defs><path class="a" d="M28.116,0A28.116,28.116,0,1,0,56.232,28.116,28.148,28.148,0,0,0,28.116,0Zm0,51.673A23.557,23.557,0,1,1,51.673,28.116,23.583,23.583,0,0,1,28.116,51.673Z"/><path class="b" d="M13.764,0l4.77,9.579h21.16L43.56,0Z"/><path class="c" d="M28.116,0A28.116,28.116,0,1,0,56.232,28.116,28.148,28.148,0,0,0,28.116,0Zm0,51.673A23.557,23.557,0,1,1,51.673,28.116,23.583,23.583,0,0,1,28.116,51.673Z"/></svg>