<svg xmlns="http://www.w3.org/2000/svg" width="56.232" height="56.232" viewBox="0 0 56.232 56.232"><defs><style>.a{fill:#3da836;}</style></defs><g transform="translate(13.526 18.162)"><path class="a" d="M151.788,166.075a2.279,2.279,0,0,0-3.223-.085l-14.553,13.8-6.942-7.127a2.28,2.28,0,0,0-3.266,3.181l8.511,8.738a2.28,2.28,0,0,0,3.2.064L151.7,169.3A2.279,2.279,0,0,0,151.788,166.075Z" transform="translate(-123.158 -165.364)"/></g><path class="a" d="M28.116,0A28.116,28.116,0,1,0,56.232,28.116,28.148,28.148,0,0,0,28.116,0Zm0,51.673A23.557,23.557,0,1,1,51.673,28.116,23.583,23.583,0,0,1,28.116,51.673Z"/></svg>